<svg width="35" height="35" viewBox="0 0 35 35" fill="none" xmlns="http://www.w3.org/2000/svg">
<g clip-path="url(#clip0_895_290)">
<path d="M27.8763 17.5017C27.8763 23.2329 23.2371 27.8721 17.5059 27.8721V17.5017H27.8763ZM17.5059 7.13135V17.5017H7.13556C7.13556 11.7706 11.7748 7.13135 17.5059 7.13135Z" fill="black"/>
<path d="M17.5059 7.13062C23.2371 7.13062 27.8763 11.7698 27.8763 17.501H17.5059V7.13062ZM7.13556 17.501H17.5059V27.8714C11.7748 27.8714 7.13556 23.2321 7.13556 17.501Z" fill="#F2F4F8"/>
<path d="M17.5059 7.13109V7.69969C22.9101 7.69969 27.3076 12.0962 27.3076 17.5015H27.8762C27.8762 11.7744 23.2329 7.13109 17.5059 7.13109ZM17.5059 27.3032C12.1017 27.3032 7.70408 22.9067 7.70408 17.5015H7.13549C7.13549 23.2285 11.7788 27.8718 17.5059 27.8718M17.5059 0.00146484C7.84114 0.00146484 0.00585938 7.83675 0.00585938 17.5015C0.00585938 27.1662 7.84114 35.0015 17.5059 35.0015C27.1706 35.0015 35.0059 27.1662 35.0059 17.5015C35.0059 7.83675 27.1706 0.00146484 17.5059 0.00146484V0.00146484ZM33.8679 17.5015C33.8679 26.5375 26.5429 33.8635 17.5059 33.8635C8.46879 33.8635 1.14385 26.5375 1.14385 17.5015C1.14385 8.46542 8.46982 1.13946 17.5059 1.13946C26.5419 1.13946 33.8679 8.46542 33.8679 17.5015V17.5015Z" fill="black"/>
<path d="M10.0287 9.05975C10.5879 8.47478 10.9045 7.79895 10.3453 7.15374C10.041 6.80358 9.53009 6.72701 9.10656 6.89954L9.06442 6.91587L9.07778 6.87912C9.14049 6.71272 9.18058 6.18185 8.72519 5.81535C8.50314 5.6367 8.22456 5.57034 7.9429 5.59892C7.4176 5.65201 7.0136 6.0083 5.91367 7.22623C5.58163 7.59375 5.09848 8.17361 4.80859 8.5493L7.82982 11.3956C8.83107 10.295 9.23917 9.88565 10.0287 9.05975ZM6.08637 8.3635C6.69493 7.62437 7.34153 6.95365 7.6345 6.68821C7.72702 6.6045 7.82776 6.52079 7.95009 6.48812C8.14849 6.43401 8.35306 6.57387 8.39932 6.77601C8.44558 6.97917 8.31708 7.17212 8.17419 7.33138C7.85243 7.69175 6.67232 8.91784 6.67232 8.91784L6.08637 8.3635ZM7.26957 9.47832C7.26957 9.47832 8.41885 8.27162 8.79406 7.88572C8.94312 7.73259 9.03872 7.63969 9.14152 7.58966C9.27413 7.52535 9.41907 7.51208 9.5486 7.59783C9.67606 7.68256 9.73466 7.82855 9.70279 7.97352C9.66476 8.14605 9.5229 8.31041 9.40571 8.43598C9.2474 8.60443 7.8843 10.0531 7.88224 10.0551L7.26957 9.47832V9.47832ZM17.8526 5.66528L18.8199 3.51324L18.8816 3.32233L18.8641 3.52141L18.9659 6.39726C19.3051 6.42891 19.6557 6.47587 20.0011 6.53304L19.8438 2.27387C19.3606 2.22079 18.8795 2.18302 18.3984 2.1626L17.4455 4.51167L17.4116 4.68624L17.3777 4.51167L16.4258 2.1626C15.9447 2.18302 15.4636 2.22079 14.9804 2.27387L14.8231 6.53304C15.1685 6.47587 15.5191 6.42993 15.8583 6.39726L15.9601 3.52141L15.9426 3.32233L16.0043 3.51324L16.9716 5.66528H17.8526H17.8526ZM25.8862 10.1174C26.1237 10.3706 26.466 10.7789 26.6582 11.027L30.1986 8.79534C30.0218 8.56564 29.7401 8.21649 29.5294 7.97046L27.2874 9.44258L27.1342 9.57326L27.2483 9.40787L28.2382 7.44572L27.5382 6.75049L25.5614 7.73361L25.3949 7.84693L25.5275 7.69482L27.0108 5.46927C26.7497 5.24876 26.4989 5.04662 26.1792 4.80161L23.932 8.3145C24.2168 8.53195 24.592 8.85149 24.8315 9.06894L26.9471 7.97862L27.0828 7.8796L26.9831 8.01435L25.8862 10.1174Z" fill="black"/>
</g>
<defs>
<clipPath id="clip0_895_290">
<rect width="35" height="35" fill="white"/>
</clipPath>
</defs>
</svg>
