<svg width="46" height="35" viewBox="0 0 46 35" fill="none" xmlns="http://www.w3.org/2000/svg">
<path d="M13.8 26.8624C12.3625 28.2999 10.925 29.0244 9.338 29.0244C6.026 29.0244 3.588 26.5864 3.588 23.1364C3.588 19.6864 6.026 17.2484 9.338 17.2484C10.925 17.2484 12.5005 17.9614 13.8 19.2609L13.938 19.3989L16.1 16.8114C14.375 14.7989 12.213 13.6489 9.637 13.6489C7.061 13.6489 4.6 14.5114 2.875 16.0984C1.012 17.8234 0 20.2614 0 23.1364C0 26.0114 1.012 28.4494 2.875 30.1744C4.6 31.7614 7.038 32.6124 9.637 32.6124C12.236 32.6124 14.375 31.6004 16.1 29.4499L13.8 26.8624Z" fill="black"/>
<path d="M17.9745 32.3133H21.7005V13.9133H17.9745V32.3133Z" fill="black"/>
<path d="M36.3745 28.2883C35.3625 28.8633 34.5115 29.1508 33.6375 29.1508C32.4875 29.1508 31.9125 28.5758 31.9125 27.1383V17.5013H35.65V14.0513H31.763V8.30127L28.0255 10.3138V14.0513H24.863V17.5013H28.0255V27.8513C28.0255 30.7263 29.7505 32.5893 32.1885 32.5893C33.9135 32.5893 34.9255 32.1523 35.5005 31.7268L36.363 28.1388L36.3745 28.2883Z" fill="black"/>
<path d="M39.5255 32.3133H43.2745V13.9133H39.5255V32.3133Z" fill="black"/>
<path d="M45.5745 10.7623C42.1245 5.87476 36.5125 2.99976 30.6245 2.99976C24.8745 2.99976 19.1245 5.87476 15.6745 10.7623L15.5365 11.0498H19.849C22.724 8.03676 26.611 6.44976 30.636 6.44976C34.523 6.44976 38.3985 8.03676 41.423 11.0498H45.7355L45.5745 10.7623Z" fill="black"/>
</svg>
