<svg width="141" height="41" viewBox="0 0 141 41" fill="none" xmlns="http://www.w3.org/2000/svg">
<path d="M47.0475 27.0005H49.9662L53.0762 18.4359L56.1385 27.0005H59.0571L63.3156 14.5602H60.349L57.55 23.3402L54.4638 14.5602H51.6408L48.5547 23.3402L45.7556 14.5602H42.7891L47.0475 27.0005Z" fill="black"/>
<path d="M70.1181 27.3833C73.0846 27.3833 75.3095 25.613 75.6923 23.2445H72.8932C72.6779 24.2015 71.6492 25.0867 70.1181 25.0867C67.9889 25.0867 66.7927 23.6991 66.6252 21.6416H75.788V20.6129C75.788 16.5459 73.2521 14.1775 70.1181 14.1775C66.386 14.1775 63.7305 16.9048 63.7305 20.7565C63.7305 24.6321 66.386 27.3833 70.1181 27.3833ZM66.6252 19.7038C66.9123 17.8378 68.0367 16.5938 70.0224 16.5938C71.7449 16.5938 72.8932 17.8856 72.9889 19.7038H66.6252Z" fill="black"/>
<path d="M77.6641 27.0005H80.4871V20.7804C80.4871 18.3163 81.8029 16.5938 83.8604 16.5938C85.5829 16.5938 86.5398 17.8378 86.5398 19.8235V27.0005H89.3867V19.7038C89.3867 16.0674 87.8556 14.1775 84.7934 14.1775C82.7599 14.1775 81.3484 15.1344 80.4871 16.5698V14.5602H77.6641V27.0005Z" fill="black"/>
<path d="M91.5165 27.0005H94.3395V20.7804C94.3395 18.3163 95.6553 16.5938 97.7127 16.5938C99.4352 16.5938 100.392 17.8378 100.392 19.8235V27.0005H103.239V19.7038C103.239 16.0674 101.708 14.1775 98.6457 14.1775C96.6122 14.1775 95.2007 15.1344 94.3395 16.5698V14.5602H91.5165V27.0005Z" fill="black"/>
<path d="M111.278 27.3833C114.245 27.3833 116.469 25.613 116.852 23.2445H114.053C113.838 24.2015 112.809 25.0867 111.278 25.0867C109.149 25.0867 107.953 23.6991 107.785 21.6416H116.948V20.6129C116.948 16.5459 114.412 14.1775 111.278 14.1775C107.546 14.1775 104.89 16.9048 104.89 20.7565C104.89 24.6321 107.546 27.3833 111.278 27.3833ZM107.785 19.7038C108.072 17.8378 109.197 16.5938 111.182 16.5938C112.905 16.5938 114.053 17.8856 114.149 19.7038H107.785Z" fill="black"/>
<path d="M124.733 27.3833C127.724 27.3833 129.949 25.4216 130.331 22.7661H127.532C127.341 24.034 126.216 24.967 124.637 24.967C122.628 24.967 121.192 23.2445 121.192 20.7565C121.192 18.2923 122.628 16.5938 124.637 16.5938C126.169 16.5938 127.317 17.5507 127.532 18.8426H130.331C129.949 16.1631 127.7 14.1775 124.733 14.1775C120.977 14.1775 118.346 16.9048 118.346 20.7565C118.346 24.6321 120.977 27.3833 124.733 27.3833Z" fill="black"/>
<path d="M139.181 26.9766V24.5125C136.406 24.7278 136.31 24.4886 136.31 22.4311V17.0722H139.755V14.5602H136.31V11.2109H133.487V14.5602H130.832V17.0722H133.487V23.6512C133.415 27.168 135.305 27.3116 139.181 26.9766Z" fill="black"/>
<path d="M24.8207 33.2673C22.9066 29.9982 20.9225 26.6484 17.9975 26.6484C15.0725 26.6484 13.0938 29.9982 11.1797 33.2673" stroke="black" stroke-width="2.89635" stroke-miterlimit="10"/>
<path d="M31.8874 20.7344C31.8874 27.364 36.6406 37.822 31.8874 39.3113C28.8764 40.2577 26.887 36.8165 24.8223 33.2893" stroke="black" stroke-width="2.89635" stroke-miterlimit="10"/>
<path d="M4.11489 20.7344C4.11489 27.364 -0.643612 37.822 4.11489 39.3113C7.12592 40.2577 9.11536 36.8165 11.1801 33.2893" stroke="black" stroke-width="2.89635" stroke-miterlimit="10"/>
<path d="M11.1797 8.16406C13.0938 11.4332 15.0779 14.7776 17.9975 14.7776C20.9171 14.7776 22.9066 11.4332 24.8207 8.16406" stroke="black" stroke-width="2.89635" stroke-miterlimit="10"/>
<path d="M4.11489 20.7359C4.11489 14.1063 -0.643612 3.65371 4.11489 2.15895C7.12592 1.21262 9.11536 4.6538 11.1801 8.18638" stroke="black" stroke-width="2.89635" stroke-miterlimit="10"/>
<path d="M31.8874 20.7359C31.8874 14.1063 36.6406 3.65371 31.8874 2.15895C28.8764 1.21262 26.887 4.6538 24.8223 8.18638" stroke="black" stroke-width="2.89635" stroke-miterlimit="10"/>
<path d="M18.0041 34.598C25.6715 34.598 31.8871 28.3824 31.8871 20.715C31.8871 13.0477 25.6715 6.83203 18.0041 6.83203C10.3368 6.83203 4.12109 13.0477 4.12109 20.715C4.12109 28.3824 10.3368 34.598 18.0041 34.598Z" stroke="black" stroke-width="2.89635" stroke-miterlimit="10"/>
<path d="M12.0614 7.54099C11.9807 7.39582 11.8946 7.25064 11.8086 7.10547C11.1526 7.40144 10.52 7.74655 9.91602 8.13783C10.0128 8.29913 10.1095 8.46043 10.2063 8.63249L10.2548 8.70777C10.5021 9.12717 10.7548 9.56269 11.0128 9.98746C11.614 9.59449 12.2471 9.25274 12.9055 8.96585C12.6367 8.51957 12.3678 8.06792 12.1097 7.62164L12.0614 7.54099Z" fill="black"/>
<path d="M23.9384 7.54245L23.8954 7.6231C23.632 8.06938 23.3577 8.52103 23.0996 8.96731C23.7642 9.25355 24.4044 9.59342 25.0138 9.98354C25.2719 9.55877 25.5515 9.12324 25.7719 8.70385L25.8203 8.62858C25.9171 8.45652 26.0139 8.29521 26.1107 8.13391C25.506 7.74373 24.8734 7.39868 24.218 7.10156L23.9384 7.54245Z" fill="black"/>
<path d="M3.03907 20.7352C3.03711 22.8811 3.50127 25.0018 4.39942 26.9508C5.45325 22.874 5.45325 18.5963 4.39942 14.5195C3.50192 16.4687 3.0378 18.5893 3.03907 20.7352Z" fill="black"/>
<path d="M25.7445 32.7265C25.4972 32.3017 25.2444 31.8716 24.9863 31.4414C24.3864 31.8364 23.7532 32.1783 23.0938 32.463C23.3626 32.9093 23.6314 33.3609 23.8895 33.8126L23.9325 33.8879L24.1906 34.3288C24.845 34.0277 25.4775 33.6809 26.0832 33.291L25.7929 32.8017L25.7445 32.7265Z" fill="black"/>
<path d="M10.2548 32.7265L10.2063 32.8017L9.91602 33.291C10.5199 33.6809 11.1506 34.0277 11.8033 34.3288C11.8893 34.1782 11.9807 34.033 12.0614 33.8879L12.1097 33.8126C12.3732 33.3609 12.6474 32.9093 12.9055 32.463C12.2461 32.1783 11.6128 31.8364 11.0128 31.4414C10.7548 31.8716 10.4967 32.3017 10.2548 32.7265Z" fill="black"/>
<path d="M32.9613 20.7352C32.9626 18.5893 32.4984 16.4687 31.6009 14.5195C31.1426 16.5619 30.878 18.643 30.8105 20.7352C30.878 22.8273 31.1426 24.9084 31.6009 26.9508C32.493 24.9998 32.9568 22.8804 32.9613 20.7352Z" fill="black"/>
</svg>
