<svg width="64" height="35" viewBox="0 0 64 35" fill="none" xmlns="http://www.w3.org/2000/svg">
<g clip-path="url(#clip0_895_328)">
<path d="M27.225 13.5002L25.0363 20.0282C25.0318 20.0398 25.0363 20.0514 25.0468 20.0586C25.0468 20.0586 25.0632 20.0731 25.0796 20.0847C25.0975 20.0963 25.1154 20.1078 25.1154 20.1078C25.1258 20.1151 25.1393 20.1151 25.1482 20.1078L30.8683 16.0706L36.587 20.1078C36.5959 20.1151 36.6093 20.1151 36.6198 20.1078C36.6198 20.1078 36.6377 20.0977 36.6556 20.0847C36.6735 20.0716 36.6884 20.0586 36.6884 20.0586C36.6988 20.0514 36.7033 20.0383 36.6989 20.0282L34.5102 13.5016L40.2333 9.47013C40.2437 9.46289 40.2482 9.45131 40.2437 9.43972C40.2437 9.43972 40.2392 9.41945 40.2318 9.39918C40.2258 9.3789 40.2169 9.36008 40.2169 9.36008C40.2139 9.3485 40.2019 9.34125 40.19 9.34125L33.1182 9.34415L30.9384 2.81324C30.9355 2.80166 30.9235 2.79442 30.9116 2.79442C30.9116 2.79442 30.8907 2.79297 30.8683 2.79297C30.8474 2.79297 30.8251 2.79442 30.8251 2.79442C30.8131 2.79442 30.8012 2.80311 30.7982 2.81324L28.617 9.3427L21.5452 9.33981C21.5332 9.33981 21.5228 9.34705 21.5183 9.35863C21.5183 9.35863 21.5093 9.37746 21.5034 9.39773C21.4974 9.418 21.4929 9.43828 21.4929 9.43828C21.4885 9.44986 21.4929 9.46289 21.5034 9.46869L27.225 13.5002Z" fill="black"/>
<path d="M36.7193 20.8894C36.6104 20.8894 36.506 20.859 36.4179 20.804C36.4179 20.804 36.1897 20.6664 35.8376 20.4347C34.8096 19.7614 32.2897 18.1019 30.8694 17.1258C29.5087 18.0613 27.1798 19.5963 25.9027 20.4347C25.5476 20.6679 25.3194 20.8054 25.3179 20.8069C25.2343 20.8605 25.1314 20.8894 25.021 20.8894C24.921 20.8894 24.821 20.8634 24.745 20.8199C24.6748 20.7794 24.6152 20.7359 24.6002 20.7258C24.5734 20.7099 24.5316 20.6795 24.4645 20.623C24.3421 20.5202 24.2392 20.3073 24.3018 20.0857C24.3018 20.0843 24.3645 19.8396 24.4839 19.4356C24.9106 17.9976 25.6938 15.3765 26.1921 13.8271C24.8539 12.8598 22.6309 11.1843 21.4149 10.2648C21.0763 10.0085 20.8719 9.84047 20.8704 9.83903C20.6958 9.70435 20.6421 9.47266 20.6809 9.31482C20.6988 9.24096 20.7197 9.17725 20.7271 9.15552C20.7346 9.12367 20.7525 9.07443 20.7868 8.99479C20.8495 8.84998 21.0255 8.68924 21.2628 8.6791C21.2613 8.6791 21.5238 8.66028 21.9565 8.6458C23.4992 8.59511 26.313 8.50823 27.9795 8.4894C28.5136 6.95732 29.4685 4.3855 29.9936 2.97795C30.1413 2.58117 30.2413 2.34513 30.2428 2.34369C30.3204 2.1424 30.5307 2.02076 30.6978 2.00628C30.7605 2.00049 30.8187 2.00049 30.8485 2.00049H30.8739H30.8918C30.9231 2.00049 30.9813 2.00194 31.0439 2.00628C31.2051 2.01931 31.4169 2.13226 31.5005 2.34803C31.5244 2.40451 31.6213 2.64344 31.7467 2.97795C32.2733 4.3884 33.2297 6.96311 33.7608 8.4894C35.4303 8.50823 38.2426 8.59511 39.7838 8.6458C40.2179 8.66028 40.479 8.6791 40.482 8.6791C40.7147 8.68924 40.8908 8.84998 40.9535 8.99479C40.9818 9.0585 41.0027 9.12077 41.0116 9.14828C41.0295 9.18593 41.043 9.23951 41.0609 9.31337C41.0982 9.46687 41.0534 9.69711 40.8669 9.84047C40.8311 9.86944 40.6342 10.0287 40.3253 10.2619C39.1079 11.1829 36.8849 12.8583 35.5481 13.8256C36.0464 15.3736 36.8297 17.9961 37.2549 19.4341C37.3758 19.8425 37.4384 20.0886 37.4384 20.0901C37.5011 20.3073 37.3967 20.5187 37.2743 20.6215C37.2176 20.6693 37.1639 20.707 37.143 20.7215C37.1132 20.7475 37.0654 20.7779 36.9953 20.8185C36.9192 20.8648 36.8193 20.8894 36.7193 20.8894Z" fill="black"/>
<path d="M27.225 13.5002L25.0363 20.0282C25.0318 20.0398 25.0363 20.0514 25.0468 20.0586C25.0468 20.0586 25.0632 20.0731 25.0796 20.0847C25.0975 20.0963 25.1154 20.1078 25.1154 20.1078C25.1258 20.1151 25.1393 20.1151 25.1482 20.1078L30.8683 16.0706L36.587 20.1078C36.5959 20.1151 36.6093 20.1151 36.6198 20.1078C36.6198 20.1078 36.6392 20.0977 36.6556 20.0847C36.6735 20.0716 36.6884 20.0586 36.6884 20.0586C36.6988 20.0514 36.7033 20.0383 36.6989 20.0282L34.5102 13.5016L40.2333 9.47013C40.2437 9.46289 40.2482 9.45131 40.2437 9.43972C40.2437 9.43972 40.2392 9.41945 40.2318 9.39918C40.2258 9.3789 40.2169 9.36008 40.2169 9.36008C40.2139 9.3485 40.2019 9.34125 40.19 9.34125L33.1182 9.34415L30.9384 2.81324C30.9355 2.80166 30.9235 2.79442 30.9116 2.79442C30.9116 2.79442 30.8907 2.79297 30.8683 2.79297C30.8474 2.79297 30.8251 2.79442 30.8251 2.79442C30.8116 2.79442 30.8012 2.80311 30.7982 2.81324L28.617 9.3427L21.5452 9.33981C21.5332 9.33981 21.5228 9.34705 21.5183 9.35863C21.5183 9.35863 21.5093 9.37746 21.5034 9.39773C21.4974 9.418 21.4929 9.43828 21.4929 9.43828C21.4885 9.44986 21.4929 9.46289 21.5034 9.46869L27.225 13.5002Z" fill="black"/>
<path d="M44.0894 18.7022L44.0939 18.6414H43.6747C43.6582 19.0063 43.8865 19.251 44.267 19.251C44.6817 19.251 44.9324 19.0063 44.9324 18.6037C44.9324 18.372 44.8369 18.1476 44.5862 18.0882V18.081C44.8055 17.9955 44.8622 17.774 44.8622 17.5684C44.8622 17.2194 44.6534 16.9978 44.2908 16.9978C43.879 16.9978 43.7493 17.2889 43.7627 17.6422H44.1521V17.5973C44.1521 17.5017 44.173 17.37 44.3013 17.37C44.4311 17.37 44.4549 17.4959 44.4549 17.593C44.4549 17.8362 44.3535 17.8811 44.1103 17.8811V18.2591C44.3639 18.2504 44.449 18.3185 44.449 18.5632C44.449 18.6921 44.437 18.8716 44.255 18.8716C44.1372 18.8716 44.0894 18.7732 44.0894 18.7022Z" fill="black"/>
<path d="M43.2055 17.0295H41.9896V17.4046H42.5938L41.8926 19.2147H42.3581L43.2055 17.0295Z" fill="black"/>
<path d="M40.8839 18.037V18.0312C41.0928 17.9632 41.1927 17.7764 41.1927 17.5693C41.1927 17.2493 40.9704 16.9958 40.6303 16.9958C40.2856 16.9958 40.0663 17.2478 40.0663 17.5693C40.0663 17.7778 40.1737 17.9632 40.3722 18.0298V18.037C40.0946 18.1283 39.9813 18.3339 39.9813 18.6148C39.9813 18.9739 40.2543 19.2491 40.6303 19.2491C41.0077 19.2491 41.2733 18.9739 41.2733 18.6148C41.2733 18.3397 41.1674 18.1239 40.8839 18.037ZM40.6213 17.3333C40.7422 17.3333 40.7586 17.4853 40.7586 17.5664C40.7586 17.6446 40.7586 17.8111 40.6213 17.8111C40.5094 17.8111 40.496 17.6446 40.496 17.5635C40.496 17.4839 40.5139 17.3333 40.6213 17.3333ZM40.6258 18.8711C40.4706 18.8711 40.4393 18.6727 40.4393 18.5627C40.4393 18.4497 40.4721 18.2456 40.6228 18.2456C40.7675 18.2456 40.8212 18.4541 40.8212 18.5627C40.8212 18.6684 40.778 18.8711 40.6258 18.8711Z" fill="black"/>
<path d="M39.1987 17.0293H38.5527V17.4044H38.7691V19.2145H39.1987V17.0293Z" fill="black"/>
<path d="M18.2718 17.0293H17.2871V19.2145H18.2763V18.8076H17.7735V18.3152H18.2106V17.9097H17.7735V17.4333H18.2718V17.0293Z" fill="black"/>
<path d="M22.9638 18.6992C22.803 18.6992 22.6779 18.8209 22.6779 18.9715C22.6779 19.125 22.803 19.2495 22.9638 19.2495C23.1202 19.2495 23.2408 19.125 23.2408 18.9715C23.2408 18.8223 23.1202 18.6992 22.9638 18.6992Z" fill="black"/>
<path d="M22.3469 17.0293H21.0906V17.4333H21.4726V19.2145H21.9634V17.4333H22.3469V17.0293Z" fill="black"/>
<path d="M20.2408 17.5218V17.1004C20.1021 17.0338 19.9633 16.9976 19.8037 16.9976C19.3845 16.9976 19.1592 17.2901 19.1592 17.6391C19.1592 17.9547 19.3308 18.1184 19.6142 18.2864C19.75 18.3776 19.9037 18.4384 19.9037 18.6049C19.9037 18.7512 19.7813 18.8439 19.6187 18.8439C19.477 18.8439 19.3636 18.799 19.2502 18.7266V19.1422C19.3636 19.2131 19.5322 19.2522 19.6709 19.2522C20.1275 19.2522 20.3811 18.9568 20.3811 18.5687C20.3811 17.9765 19.6366 17.9547 19.6366 17.5971C19.6366 17.4653 19.7336 17.3813 19.8813 17.3813C20.02 17.3799 20.1379 17.445 20.2408 17.5218Z" fill="black"/>
<path d="M15.9415 31.6519C15.5328 32.0501 14.9986 32.4469 14.475 32.6091C13.9811 32.764 12.5712 32.8827 12.1565 31.7532C12.067 31.5085 12.1401 31.4332 12.3683 31.368C12.7085 31.2696 13.5843 31.0205 14.5093 30.6831C15.3478 30.379 16.0967 30.0068 16.3309 29.8548C16.7502 29.5869 16.8128 29.2104 16.6293 28.8064C16.04 27.5219 14.7077 26.1766 12.4937 26.5864C10.7332 26.9123 9.47247 28.4501 9.47247 30.2096C9.47247 32.3875 10.8242 33.6618 12.5459 34.0572C14.1363 34.425 16.0087 33.6763 16.8084 32.4179C17.1247 31.9299 16.231 31.355 15.9415 31.6519ZM11.9566 29.9373C11.7835 29.4754 11.9222 28.062 12.7249 27.7941C13.5694 27.5132 14.0871 27.9361 14.3392 28.7615C14.4332 29.067 14.4123 29.3899 14.3094 29.513C14.1602 29.6883 13.8931 29.794 13.6529 29.8722L13.0203 30.0763C12.3982 30.2805 12.1028 30.3225 11.9566 29.9373Z" fill="black"/>
<path d="M36.554 31.6521C36.1452 32.0503 35.6111 32.4471 35.0875 32.6093C34.5936 32.7642 33.1837 32.883 32.769 31.7535C32.6795 31.5088 32.7526 31.4334 32.9808 31.3683C33.321 31.2698 34.1968 31.0207 35.1218 30.6833C35.9602 30.3792 36.7092 30.0071 36.9434 29.855C37.3627 29.5871 37.4253 29.2106 37.2418 28.8066C36.6525 27.5221 35.3202 26.1769 33.1062 26.5867C31.3457 26.9125 30.085 28.4504 30.085 30.2098C30.085 32.3877 31.4382 33.6621 33.1584 34.0574C34.7488 34.4252 36.6197 33.6765 37.4209 32.4182C37.7372 31.9301 36.8435 31.3553 36.554 31.6521ZM32.5676 29.9376C32.4646 29.661 32.4721 29.0455 32.666 28.5373C32.7973 28.1955 32.9928 27.9291 33.3344 27.7958C33.7208 27.6452 34.0506 27.6872 34.3087 27.8306C34.6041 27.9957 34.8144 28.3215 34.9487 28.7632C35.0427 29.0687 35.0218 29.3916 34.9189 29.5147C34.7697 29.6899 34.5354 29.7797 34.2624 29.8739C33.9894 29.9694 33.7447 30.0447 33.6298 30.0809C33.0062 30.2692 32.7138 30.3228 32.5676 29.9376Z" fill="black"/>
<path d="M52.2718 31.6521C51.863 32.0503 51.3289 32.4471 50.8052 32.6093C50.3114 32.7642 48.9015 32.883 48.4867 31.7535C48.3972 31.5088 48.4703 31.4334 48.6986 31.3683C49.0388 31.2698 49.9145 31.0207 50.8395 30.6833C51.678 30.3792 52.427 30.0071 52.6612 29.855C53.0804 29.5871 53.1431 29.2106 52.9596 28.8066C52.3703 27.5221 51.038 26.1769 48.8239 26.5867C47.0634 26.9125 45.8027 28.4504 45.8027 30.2098C45.8027 32.3877 47.1544 33.6621 48.8761 34.0574C50.4666 34.4252 52.3389 33.6765 53.1386 32.4182C53.4549 31.9301 52.5612 31.3553 52.2718 31.6521ZM48.2853 29.9376C48.1824 29.661 48.1898 29.0455 48.3853 28.5373C48.5166 28.1955 48.712 27.9291 49.0537 27.7958C49.4401 27.6452 49.7698 27.6872 50.0279 27.8306C50.3233 27.9957 50.5337 28.3215 50.668 28.7632C50.762 29.0687 50.7411 29.3916 50.6381 29.5147C50.4889 29.6899 50.2547 29.7797 49.9817 29.8739C49.7086 29.9694 49.4655 30.0447 49.3491 30.0809C48.724 30.2692 48.4315 30.3228 48.2853 29.9376Z" fill="black"/>
<path d="M5.91304 32.0657C5.91304 32.3583 5.81905 32.6783 5.58631 32.7782L5.08501 32.9983C4.9955 33.0389 4.97013 33.1026 4.97013 33.1996C4.97013 33.2242 4.97162 33.2387 4.97759 33.272L5.03727 33.8252C5.06413 33.9758 5.17005 34.0004 5.37445 34.0004H9.01032C9.21621 34.0004 9.32214 33.9758 9.3475 33.8252L9.40718 33.272C9.41166 33.2387 9.41464 33.2242 9.41464 33.1996C9.41464 33.1026 9.38928 33.0389 9.29976 32.9983L8.79847 32.7782C8.56721 32.6783 8.47173 32.3583 8.47173 32.0657V25.9533C8.47173 25.6608 8.56572 25.3408 8.79847 25.2409L9.29976 25.0208C9.38928 24.9817 9.41464 24.9165 9.41464 24.8195C9.41464 24.7949 9.41315 24.7804 9.40718 24.7471L9.3475 24.3315C9.32065 24.1809 9.21472 24.1562 9.01032 24.1562H5.54304C5.33715 24.1562 5.23122 24.1809 5.20586 24.3315L5.14618 24.7471C5.14171 24.7804 5.13872 24.7949 5.13872 24.8195C5.13872 24.9165 5.16409 24.9802 5.2536 25.0208L5.6624 25.2409C5.89663 25.3712 5.91155 25.6623 5.91155 25.9533V27.6577C5.91155 27.7765 5.81308 27.8721 5.69074 27.8721H3.72137C3.59903 27.8721 3.50057 27.7765 3.50057 27.6577V25.9533C3.50057 25.6608 3.51549 25.3712 3.74972 25.2409L4.15851 25.0208C4.24803 24.9817 4.27339 24.9165 4.27339 24.8195C4.27339 24.7949 4.2719 24.7804 4.26593 24.7471L4.20626 24.3315C4.1794 24.1809 4.07347 24.1562 3.86908 24.1562H0.40627C0.200382 24.1562 0.0944538 24.1809 0.0690907 24.3315L0.00941285 24.7471C0.00493702 24.7804 0.00195312 24.7949 0.00195312 24.8195C0.00195312 24.9165 0.0273162 24.9802 0.116833 25.0208L0.618127 25.2409C0.849378 25.3408 0.944863 25.6623 0.944863 25.9533V32.0657C0.944863 32.3583 0.85087 32.6783 0.618127 32.7782L0.116833 32.9983C0.0273162 33.0389 0.00195313 33.1026 0.00195313 33.1996C0.00195313 33.2242 0.00344507 33.2387 0.00941285 33.272L0.0690907 33.8252C0.0959457 33.9758 0.201874 34.0004 0.40627 34.0004H4.04214C4.24803 34.0004 4.35396 33.9758 4.37932 33.8252L4.439 33.272C4.44348 33.2387 4.44646 33.2242 4.44646 33.1996C4.44646 33.1026 4.4211 33.0389 4.33158 32.9983L3.83029 32.7782C3.59903 32.6783 3.50355 32.3583 3.50355 32.0657V29.5808C3.50355 29.4621 3.60202 29.3665 3.72436 29.3665H5.69373C5.81607 29.3665 5.91453 29.4621 5.91453 29.5808V32.0657H5.91304Z" fill="black"/>
<path d="M20.2435 25.186C20.2435 25.8651 19.6556 26.4154 18.9306 26.4154C18.2055 26.4154 17.6191 25.8651 17.6191 25.186C17.6191 24.5068 18.207 23.9565 18.9306 23.9565C19.6556 23.9565 20.2435 24.5068 20.2435 25.186Z" fill="black"/>
<path d="M17.4975 33.9984C17.3005 33.9984 17.1991 33.9753 17.1737 33.8305L17.117 33.2787C17.1125 33.2469 17.1125 33.2324 17.1125 33.2092C17.1125 33.1166 17.1394 33.0601 17.22 33.0166L17.6109 32.8052C17.8272 32.7038 17.9242 32.4012 17.9242 32.1217V28.6318C17.9242 28.3393 17.8719 27.9671 17.6079 27.8382L17.3572 27.6978C17.2677 27.6587 17.2423 27.5935 17.2423 27.4979C17.2423 27.4733 17.2438 27.4588 17.2498 27.4255L17.3095 27.0099C17.3363 26.8593 17.4423 26.8347 17.6467 26.8347H20.1024C20.2247 26.8347 20.3232 26.9303 20.3232 27.049V32.1217C20.3232 32.4026 20.4202 32.7038 20.6365 32.8052L21.0274 33.0166C21.1095 33.0601 21.1348 33.1166 21.1348 33.2092C21.1348 33.2324 21.1363 33.2483 21.1304 33.2787L21.0737 33.8305C21.0483 33.9753 20.9468 33.9984 20.7499 33.9984H17.4975Z" fill="black"/>
<path d="M24.9278 27.2075C24.9278 27.2075 25.0666 27.1423 25.3143 27.025C25.8066 26.8006 26.7689 26.3994 27.5641 26.6456C28.2534 26.8599 28.8487 27.3451 28.8487 28.6194C28.8487 30.0675 28.8487 31.9138 28.8487 32.4814C28.8487 32.6465 28.8561 32.7146 28.9352 32.7566C29.0411 32.8131 29.2246 32.6451 29.4007 32.5567C29.5782 32.4684 29.6767 32.5727 29.7856 32.6885C29.8811 32.7913 29.9945 32.9347 29.902 33.1244C29.6081 33.7225 28.9501 34.0657 28.1788 34.0657C27.4507 34.0657 26.5242 33.6602 26.5242 32.6016C26.5242 31.5431 26.5242 29.3565 26.5242 28.8829C26.5242 28.3153 26.099 28.1169 25.7693 28.1574C25.271 28.2168 24.9084 28.6223 24.9084 29.3434V32.1223C24.9084 32.4032 25.0054 32.7045 25.2218 32.8058L25.6126 33.0172C25.6947 33.0607 25.7201 33.1172 25.7201 33.2098C25.7201 33.233 25.7216 33.2489 25.7156 33.2793L25.6589 33.8311C25.6335 33.9759 25.5321 33.999 25.3351 33.999H22.0812C21.8843 33.999 21.7828 33.9759 21.7575 33.8311L21.7008 33.2793C21.6963 33.2475 21.6963 33.233 21.6963 33.2098C21.6963 33.1172 21.7231 33.0607 21.8037 33.0172L22.1946 32.8058C22.4109 32.7045 22.5079 32.4018 22.5079 32.1223V28.6324C22.5079 28.3399 22.4572 27.9677 22.1931 27.8389L21.9425 27.6984C21.8529 27.6593 21.8276 27.5941 21.8276 27.4986C21.8276 27.4739 21.8291 27.4595 21.835 27.4261L21.8947 27.0105C21.9216 26.8599 22.0275 26.8353 22.2319 26.8353H24.5459C24.7279 26.8353 24.798 26.9367 24.8503 27.0496L24.9278 27.2075Z" fill="black"/>
<path d="M56.6819 27.2075C56.6819 27.2075 56.8207 27.1423 57.0683 27.025C57.5607 26.8006 58.523 26.3994 59.3182 26.6456C60.0075 26.8599 60.6028 27.3451 60.6028 28.6194C60.6028 30.0675 60.6028 31.9138 60.6028 32.4814C60.6028 32.6465 60.6102 32.7146 60.6893 32.7566C60.7952 32.8131 60.9787 32.6451 61.1548 32.5567C61.3323 32.4684 61.4308 32.5727 61.5397 32.6885C61.6352 32.7913 61.7486 32.9347 61.6561 33.1244C61.3622 33.7225 60.7042 34.0657 59.9329 34.0657C59.2048 34.0657 58.2783 33.6602 58.2783 32.6016C58.2783 31.5431 58.2783 29.3565 58.2783 28.8829C58.2783 28.3153 57.8531 28.1169 57.5234 28.1574C57.0251 28.2168 56.6625 28.6223 56.6625 29.3434V32.1223C56.6625 32.4032 56.7595 32.7045 56.9758 32.8058L57.3667 33.0172C57.4488 33.0607 57.4742 33.1172 57.4742 33.2098C57.4742 33.233 57.4756 33.2489 57.4697 33.2793L57.413 33.8311C57.3876 33.9759 57.2862 33.999 57.0892 33.999H53.8353C53.6384 33.999 53.5369 33.9759 53.5115 33.8311L53.4549 33.2793C53.4504 33.2475 53.4504 33.233 53.4504 33.2098C53.4504 33.1172 53.4772 33.0607 53.5578 33.0172L53.9487 32.8058C54.165 32.7045 54.262 32.4018 54.262 32.1223V28.6324C54.262 28.3399 54.2113 27.9677 53.9457 27.8389L53.6951 27.6984C53.6055 27.6593 53.5802 27.5941 53.5802 27.4986C53.5802 27.4739 53.5817 27.4595 53.5876 27.4261L53.6473 27.0105C53.6742 26.8599 53.7801 26.8353 53.9845 26.8353H56.2985C56.4805 26.8353 56.5506 26.9367 56.6029 27.0496L56.6819 27.2075Z" fill="black"/>
<path d="M44.898 32.2195C45.0711 32.4888 45.2815 32.7046 45.4978 32.8074L45.8887 33.0189C45.9707 33.0623 45.9961 33.1188 45.9961 33.2114C45.9961 33.2346 45.9961 33.2505 45.9916 33.281L45.9349 33.8327C45.9096 33.9775 45.8081 34.0007 45.6112 34.0007H43.6463C43.3106 34.0007 43.2852 33.9065 43.1331 33.6401L41.486 30.7294L40.8668 31.3058V32.1254C40.8668 32.4063 41.0026 32.6988 41.2278 32.8089L41.6187 33.0203C41.7008 33.0637 41.7262 33.1202 41.7262 33.2129C41.7262 33.2361 41.7277 33.252 41.7217 33.2824L41.665 33.8341C41.6396 33.9789 41.5382 34.0021 41.3412 34.0021H38.0903C37.8934 34.0021 37.7919 33.9789 37.7665 33.8341L37.7098 33.2824C37.7054 33.2505 37.7054 33.2361 37.7054 33.2129C37.7054 33.1202 37.7322 33.0637 37.8128 33.0203L38.2037 32.8089C38.42 32.7075 38.517 32.4049 38.517 32.1254V25.8768C38.517 25.5974 38.4275 25.3048 38.2037 25.1933L37.8128 24.9819C37.7307 24.9385 37.7054 24.882 37.7054 24.7893C37.7054 24.7662 37.7039 24.7517 37.7098 24.7198L37.7665 24.3259C37.7919 24.1811 37.8934 24.158 38.0903 24.158H40.4491C40.6803 24.158 40.8683 24.3404 40.8683 24.5649V29.3088L41.9171 28.3893C42.0663 28.2648 42.311 28.0562 42.4065 27.9636C42.502 27.8709 42.5214 27.7333 42.3856 27.6783L42.0156 27.5161C41.9335 27.4799 41.9097 27.422 41.9097 27.3336C41.9097 27.3119 41.9112 27.2974 41.9156 27.267L41.9693 26.7631C41.9932 26.6255 42.0902 26.6038 42.2767 26.6038H45.1009C45.2874 26.6038 45.3844 26.6255 45.4083 26.7631L45.462 27.267C45.4665 27.2974 45.468 27.3119 45.468 27.3336C45.4739 27.4422 45.3411 27.4958 45.2591 27.532C45.2591 27.532 45.0577 27.5885 44.8757 27.6899C44.6936 27.7912 44.4982 27.9418 44.2535 28.1561L43.1644 29.1713L44.898 32.2195Z" fill="black"/>
<path d="M60.0994 24.9071C60.0994 25.9541 60.9737 26.8026 62.0509 26.8026C63.1281 26.8026 64.0024 25.9541 64.0024 24.9071C64.0024 23.8616 63.1281 23.0159 62.0509 23.0159C60.9722 23.0159 60.0994 23.8616 60.0994 24.9071ZM62.0494 26.3972C61.2005 26.3972 60.5142 25.731 60.5142 24.9071C60.5142 24.086 61.2005 23.4184 62.0494 23.4184C62.8953 23.4184 63.5846 24.0846 63.5846 24.9071C63.5861 25.731 62.8968 26.3972 62.0494 26.3972Z" fill="black"/>
<path d="M61.2468 25.8277H61.7287V25.0313C61.7302 25.0313 61.7586 25.0342 61.9212 25.0414C62.1629 25.0516 62.2882 25.0936 62.3598 25.3122C62.4105 25.4643 62.4344 25.6062 62.5344 25.8277C62.7477 25.8321 62.8074 25.8321 63.0282 25.8321C62.976 25.7046 62.8969 25.5511 62.8626 25.3354C62.8268 25.1109 62.7477 24.9878 62.5762 24.8749C62.7328 24.8199 62.8909 24.6316 62.8909 24.3565C62.8909 23.9235 62.4255 23.7888 62.2554 23.7888C62.0838 23.7888 61.2483 23.7888 61.2483 23.7888V25.8277H61.2468ZM62.1196 24.6244C61.9555 24.6244 61.7302 24.6244 61.7302 24.6244V24.1595C61.7302 24.1595 61.9212 24.1595 62.0704 24.1595C62.2181 24.1595 62.3956 24.2204 62.3956 24.3811C62.3956 24.523 62.2822 24.6244 62.1196 24.6244Z" fill="black"/>
</g>
<defs>
<clipPath id="clip0_895_328">
<rect width="64" height="32" fill="white" transform="translate(0 2)"/>
</clipPath>
</defs>
</svg>
