<svg width="604" height="522" viewBox="0 0 604 522" fill="none" xmlns="http://www.w3.org/2000/svg">
<g clip-path="url(#clip0_991_3613)">
<path d="M492.728 158.61C442.956 187.379 391.955 217.203 391.706 261.59C391.458 305.977 442.122 336.288 491.569 365.613" stroke="#FF592C" stroke-width="32.638" stroke-miterlimit="10"/>
<path d="M303.127 50.3085C403.732 50.8717 562.835 -20.3689 585.033 51.8866C599.138 97.6595 546.749 127.557 493.048 158.589" stroke="#77A7BF" stroke-width="32.638" stroke-miterlimit="10"/>
<path d="M300.768 471.762C401.373 472.325 559.668 545.424 582.674 473.34C597.29 427.728 545.239 397.246 491.889 365.614" stroke="#77A7BF" stroke-width="32.638" stroke-miterlimit="10"/>
<path d="M110.615 363.48C160.387 334.711 211.307 304.887 211.555 260.582C211.803 216.276 161.22 185.802 111.774 156.477" stroke="#FF592C" stroke-width="32.638" stroke-miterlimit="10"/>
<path d="M300.787 471.744C200.182 471.181 41.1599 542.504 18.8811 470.166C4.77636 424.393 57.1653 394.496 110.948 363.464" stroke="#77A7BF" stroke-width="32.638" stroke-miterlimit="10"/>
<path d="M303.135 50.3114C202.529 49.7482 44.3144 -23.2686 21.2276 48.7333C6.61132 94.3455 58.6622 124.828 112.094 156.46" stroke="#77A7BF" stroke-width="32.638" stroke-miterlimit="10"/>
<path d="M512.307 262.179C512.958 145.826 419.164 50.976 302.811 50.3247C186.459 49.6733 91.6078 143.468 90.9565 259.82C90.3052 376.173 184.1 471.024 300.452 471.675C416.805 472.327 511.656 378.532 512.307 262.179Z" stroke="#F8F8F8" stroke-width="32.638" stroke-miterlimit="10"/>
<path d="M102.228 169.828L103.448 170.487C110.198 174.523 117.028 178.724 123.779 182.678C128.179 172.618 133.391 162.931 139.363 153.716C132.939 149.764 126.353 145.484 120.008 142.103L118.87 141.362C116.267 139.879 113.827 138.396 111.388 136.914C105.415 146.056 100.125 155.627 95.5605 165.547L102.228 169.828Z" fill="#B9EDEA"/>
<path d="M484.561 144.529C478.094 148.246 471.545 152.044 464.996 155.924C470.939 165.062 476.073 174.7 480.338 184.731C487.133 180.69 494.01 176.648 500.885 172.77L502.031 172.124L508.744 168.245C504.231 158.288 499.022 148.661 493.157 139.436L485.707 143.801L484.561 144.529Z" fill="#B9EDEA"/>
<path d="M483.245 379.59L484.384 380.331L491.784 384.778C497.751 375.647 503.067 366.106 507.692 356.227C505.415 354.909 503.219 353.509 501.023 352.273L499.885 351.533C493.054 347.496 486.223 343.297 479.473 339.342C475.095 349.325 469.854 358.906 463.809 367.977C470.315 371.93 476.82 375.882 483.245 379.59Z" fill="#B9EDEA"/>
<path d="M303.942 31.8627C271.378 31.6611 239.158 38.5242 209.504 51.9782C240.458 59.107 272.017 63.2994 303.759 64.5003C335.513 63.6549 367.116 59.816 398.148 53.0342C368.618 39.3318 336.495 32.1126 303.942 31.8627Z" fill="#B9EDEA"/>
</g>
<defs>
<clipPath id="clip0_991_3613">
<rect width="604" height="522" fill="white"/>
</clipPath>
</defs>
</svg>
