<svg width="118" height="35" viewBox="0 0 118 35" fill="none" xmlns="http://www.w3.org/2000/svg">
<path fill-rule="evenodd" clip-rule="evenodd" d="M117.734 16.7312C117.734 17.4372 117.653 18.2926 117.531 18.7417C117.005 18.6774 116.479 18.656 115.852 18.656C115.305 18.656 114.759 18.6989 114.213 18.7843V27.9378H111.987V17.2446C112.938 16.9024 114.536 16.6458 115.791 16.6458C116.479 16.6458 117.248 16.6672 117.734 16.7312ZM102.799 21.3934H107.818C107.818 19.6398 106.928 18.6133 105.389 18.6133C103.811 18.6133 102.981 19.5757 102.799 21.3934ZM109.942 23.361H102.84C103.123 25.2644 104.175 26.184 106.158 26.184C107.373 26.184 108.607 25.906 109.72 25.3713C109.639 25.9916 109.518 26.8041 109.376 27.5098C108.364 28.0018 107.292 28.1941 106.098 28.1941C102.374 28.1941 100.573 26.0128 100.573 22.3559C100.573 19.1694 101.97 16.6458 105.511 16.6458C108.688 16.6458 110.064 18.8484 110.064 21.5432C110.064 22.2063 110.023 22.7409 109.942 23.361ZM96.5461 25.4567V18.8699C95.9594 18.7416 95.3522 18.656 94.7653 18.656C92.5596 18.656 91.5075 20.1105 91.5075 22.5485C91.5075 24.7297 92.3373 26.2696 94.3203 26.2696C95.2106 26.2696 95.9391 25.9487 96.5461 25.4567ZM98.7517 12.9673V27.9378H96.7079L96.5867 26.569C96.0199 27.5742 95.1498 28.1941 93.693 28.1941C91.022 28.1941 89.2411 26.1411 89.2411 22.5485C89.2411 18.7843 91.1432 16.6458 94.8868 16.6458C95.4736 16.6458 96.0199 16.71 96.5461 16.8169V13.2881C97.2342 13.0315 98.0232 12.9673 98.7517 12.9673ZM87.4598 20.7519V27.9378H85.2341V21.1583C85.2341 19.4688 84.7079 18.656 82.4819 18.656C81.9559 18.656 81.3285 18.7203 80.7215 18.8272V27.9378H78.4956V17.2446C79.912 16.881 81.4701 16.6458 82.5426 16.6458C86.266 16.6458 87.4598 18.1641 87.4598 20.7519ZM73.8409 25.4996V18.7843C73.3757 18.6989 72.8695 18.656 72.2425 18.656C69.9355 18.656 68.8631 20.1532 68.8631 22.5485C68.8631 24.7297 69.6929 26.2696 71.6758 26.2696C72.5457 26.2696 73.2543 25.9702 73.8409 25.4996ZM76.0668 17.2446V27.9378H74.0231L73.9019 26.6546C73.3351 27.5956 72.465 28.1941 71.0486 28.1941C68.3775 28.1941 66.5968 26.1411 66.5968 22.5485C66.5968 18.7843 68.4989 16.6458 72.2425 16.6458C73.6993 16.6458 74.8933 16.8169 76.0668 17.2446ZM64.1275 26.184C64.7749 26.184 65.3822 26.0556 65.8678 25.8633C65.8071 26.5047 65.726 27.232 65.6047 27.8519C64.9975 28.1086 64.3501 28.1941 63.7228 28.1941C61.5577 28.1941 60.1816 27.1463 60.1816 24.5373V13.3095C60.8696 13.0743 61.7195 12.9673 62.4077 12.9673V17.0093H65.9285C65.888 17.7364 65.8273 18.3995 65.726 19.0196H62.4077V24.2594C62.4077 25.6494 63.0551 26.184 64.1275 26.184ZM57.9551 20.7519V27.9378H55.7293V21.1583C55.7293 19.4688 55.2031 18.656 52.9773 18.656C52.4511 18.656 51.8238 18.7203 51.2167 18.8272V27.9378H48.9909V17.2446C50.4073 16.881 51.9654 16.6458 53.038 16.6458C56.7613 16.6458 57.9551 18.1641 57.9551 20.7519ZM44.3362 25.4996V18.7843C43.8708 18.6989 43.365 18.656 42.7376 18.656C40.4308 18.656 39.3584 20.1532 39.3584 22.5485C39.3584 24.7297 40.1881 26.2696 42.1711 26.2696C43.0412 26.2696 43.7495 25.9702 44.3362 25.4996ZM46.5621 17.2446V27.9378H44.5184L44.397 26.6546C43.8304 27.5956 42.9601 28.1941 41.5438 28.1941C38.8727 28.1941 37.092 26.1411 37.092 22.5485C37.092 18.7843 38.994 16.6458 42.7376 16.6458C44.1946 16.6458 45.3885 16.8169 46.5621 17.2446ZM26.3465 27.4672C26.387 26.5904 26.5084 25.9916 26.7309 25.3072C27.8641 25.8633 29.3211 26.1411 30.434 26.1411C32.3159 26.1411 33.3682 25.4996 33.3682 24.2378C33.3682 22.9974 32.5993 22.4199 30.6971 21.5432L29.6651 21.0728C27.7629 20.1958 26.4679 19.0623 26.4679 16.7955C26.4679 14.3576 28.0666 12.7962 31.3447 12.7962C32.66 12.7962 33.8943 12.9888 35.0477 13.4165C34.987 14.272 34.8454 14.935 34.643 15.5551C33.5503 15.1274 32.2552 14.935 31.3243 14.935C29.5639 14.935 28.7545 15.6621 28.7545 16.7955C28.7545 17.9076 29.5437 18.5491 30.9601 19.1909L32.053 19.6826C34.6228 20.8375 35.6952 22.0565 35.6952 24.1309C35.6952 26.5903 33.9348 28.2798 30.4947 28.2798C28.8354 28.2798 27.4797 28.0233 26.3465 27.4672ZM15.5543 14.6685L12.181 8.49349C11.9237 8.02256 11.746 7.51796 11.6473 7.00049L11.5064 7.25852C10.6715 8.78699 10.6715 10.6698 11.5063 12.1983L14.205 17.1384C15.0398 18.6667 15.0398 20.5499 14.205 22.0783L14.064 22.3364C13.9653 21.8189 13.7876 21.3143 13.5303 20.8434L9.48232 13.4333C9.22509 12.9624 9.04749 12.4578 8.94865 11.9403L8.80777 12.1984C7.9757 13.7217 7.97312 15.5971 8.79959 17.1228L11.5064 22.0783C12.3413 23.6067 12.3413 25.4897 11.5064 27.0182L11.3654 27.2762C11.2667 26.7588 11.0889 26.2542 10.8317 25.7834L7.45853 19.6083C7.00605 18.7802 6.79932 17.8479 6.83719 16.9242C3.226 17.9214 0.733521 20.0386 0.733521 22.4899C0.733521 25.9001 5.55667 28.6648 11.5064 28.6648C17.456 28.6648 22.2791 25.9001 22.2791 22.4899C22.2791 20.0384 19.787 17.9207 16.1755 16.9236C16.1435 16.1429 15.9368 15.3685 15.5543 14.6685Z" fill="black"/>
</svg>
